<svg viewBox="0 0 32 32" xmlns="http://www.w3.org/2000/svg">
  <style>
    .background { fill: white; }
    .text { fill: black; }
    @media (prefers-color-scheme: dark) {
      .background { fill: black; }
      .text { fill: white; }
    }
  </style>
  <path class="background" d="M0 0h32v32H0z" />
  <path
    class="text"
    d="M6.074 20.635v-.253h.308c.269 0 .475-.042.618-.127a.768.768 0 00.318-.345c.041-.096.062-.383.062-.861v-6.098c0-.474-.025-.77-.075-.889-.05-.118-.152-.222-.305-.311-.152-.088-.358-.133-.618-.133h-.308v-.253h4.15c1.107 0 1.998.151 2.672.451.825.37 1.451.928 1.877 1.675.426.748.639 1.593.639 2.536a5.03 5.03 0 01-.314 1.802c-.21.549-.481 1.002-.814 1.36a3.964 3.964 0 01-1.152.861c-.435.217-.967.384-1.596.503-.278.054-.715.082-1.312.082h-4.15zm3.534-8.743v7.232c0 .383.019.618.055.704a.388.388 0 00.185.198c.123.069.3.103.533.103.761 0 1.342-.26 1.743-.779.547-.702.82-1.791.82-3.268 0-1.189-.187-2.14-.56-2.851-.296-.556-.677-.934-1.142-1.134-.328-.142-.873-.21-1.634-.205zM25.345 11.153v3.213h-.267c-.2-.838-.574-1.481-1.121-1.928a2.864 2.864 0 00-1.859-.669c-.579 0-1.11.166-1.593.499a2.91 2.91 0 00-1.06 1.305c-.287.688-.43 1.454-.43 2.297 0 .83.104 1.585.314 2.266.21.682.538 1.197.984 1.545.447.349 1.026.523 1.737.523.583 0 1.117-.128 1.603-.383.485-.255.997-.695 1.534-1.319v.8c-.519.542-1.06.935-1.623 1.179s-1.22.366-1.972.366c-.989 0-1.868-.199-2.635-.595a4.207 4.207 0 01-1.778-1.709 4.772 4.772 0 01-.625-2.372c0-.884.231-1.723.694-2.516a4.873 4.873 0 011.873-1.845 5.068 5.068 0 012.505-.657c.652 0 1.34.142 2.064.424.42.164.686.246.8.246a.52.52 0 00.38-.16c.107-.107.176-.277.208-.51h.267z"
    fill-rule="nonzero" />
</svg>