<svg viewBox="0 0 32 32" xmlns="http://www.w3.org/2000/svg">
  <style>
    .background { fill: white; }
    .text { fill: black; }
    @media (prefers-color-scheme: dark) {
      .background { fill: black; }
      .text { fill: white; }
    }
  </style>
  <path class="background" d="M0 0h32v32H0z" />
  <path
    class="text"
    d="M4.656 21.297v-.289h.352c.307 0 .543-.048.707-.145a.885.885 0 00.363-.394c.047-.11.07-.438.07-.985v-6.968c0-.542-.028-.881-.085-1.016-.058-.135-.174-.254-.348-.355-.175-.102-.41-.153-.707-.153h-.352v-.289h4.742c1.266 0 2.284.172 3.055.516.943.422 1.658 1.06 2.145 1.914.487.854.73 1.82.73 2.898 0 .745-.12 1.431-.359 2.059-.24.627-.55 1.146-.93 1.555a4.56 4.56 0 01-1.316.984c-.498.247-1.106.439-1.825.574-.317.063-.817.094-1.5.094H4.656zm4.039-9.992v8.265c0 .438.021.706.063.805a.448.448 0 00.211.227c.14.078.343.117.609.117.87 0 1.534-.297 1.992-.891.625-.802.938-2.047.938-3.734 0-1.36-.214-2.446-.641-3.258-.338-.635-.773-1.068-1.305-1.297-.375-.161-.997-.24-1.867-.234zM26.68 10.461v3.672h-.305c-.229-.959-.656-1.693-1.281-2.203a3.268 3.268 0 00-2.125-.766c-.662 0-1.268.19-1.821.57a3.327 3.327 0 00-1.21 1.493c-.329.786-.493 1.661-.493 2.625 0 .947.12 1.811.36 2.589.239.779.614 1.368 1.125 1.766.51.398 1.172.598 1.984.598.667 0 1.277-.146 1.832-.438.555-.291 1.139-.794 1.754-1.508v.914c-.594.62-1.212 1.069-1.855 1.348-.644.279-1.395.418-2.254.418-1.131 0-2.134-.227-3.012-.68a4.797 4.797 0 01-2.031-1.953 5.447 5.447 0 01-.715-2.711c0-1.01.264-1.968.793-2.875a5.585 5.585 0 012.14-2.109c.899-.5 1.853-.75 2.864-.75.744 0 1.531.161 2.359.484.479.188.784.282.914.282a.596.596 0 00.434-.184c.122-.122.202-.316.238-.582h.305z"
    fill-rule="nonzero" />
</svg>