<svg viewBox="0 0 32 32" xmlns="http://www.w3.org/2000/svg">
  <path fill="#fff" d="M0 0h32v32H0z" />
  <path
    d="M3.238 21.959v-.325h.396c.345 0 .611-.054.795-.163a.991.991 0 00.409-.444c.053-.123.079-.492.079-1.107v-7.84c0-.609-.032-.99-.097-1.143-.064-.152-.195-.285-.391-.399-.196-.115-.461-.172-.795-.172h-.396v-.325h5.335c1.424 0 2.57.193 3.437.58 1.06.475 1.865 1.192 2.412 2.153.548.961.822 2.048.822 3.261 0 .838-.135 1.61-.404 2.316-.27.706-.618 1.289-1.046 1.749-.428.46-.921.829-1.481 1.108-.56.278-1.244.493-2.052.646-.358.07-.92.105-1.688.105H3.238zm4.544-11.241v9.299c0 .492.024.794.071.905a.502.502 0 00.237.255c.158.088.387.132.685.132.979 0 1.726-.334 2.242-1.002.703-.903 1.054-2.303 1.054-4.202 0-1.529-.24-2.751-.72-3.665-.381-.714-.871-1.201-1.468-1.459-.422-.181-1.122-.269-2.101-.263zM28.015 9.769v4.13h-.343c-.258-1.078-.738-1.904-1.442-2.478a3.678 3.678 0 00-2.39-.861c-.744 0-1.427.213-2.048.641a3.74 3.74 0 00-1.362 1.679c-.369.885-.554 1.869-.554 2.953 0 1.066.135 2.038.404 2.914.27.876.692 1.538 1.266 1.986.574.448 1.318.672 2.232.672.75 0 1.437-.164 2.061-.492.624-.328 1.282-.893 1.974-1.696v1.028c-.668.697-1.364 1.203-2.088 1.516-.724.314-1.569.47-2.536.47-1.271 0-2.4-.254-3.388-.764a5.407 5.407 0 01-2.285-2.197 6.14 6.14 0 01-.804-3.05 6.32 6.32 0 01.892-3.235 6.292 6.292 0 012.408-2.373 6.53 6.53 0 013.221-.843c.838 0 1.723.181 2.655.544.539.211.882.317 1.028.317.188 0 .35-.069.488-.207.138-.137.227-.356.268-.654h.343z"
    fill-rule="nonzero" />
</svg>